<svg width="96" height="31" viewBox="0 0 96 31" fill="none" xmlns="http://www.w3.org/2000/svg">
<g clip-path="url(#clip0_2_1054)">
<path d="M45.2603 5.17188H51.335C53.3966 5.17188 55.1959 5.59723 56.7349 6.45016C58.2718 7.30308 59.4536 8.4888 60.2783 10.0051C61.1029 11.5236 61.5152 13.2647 61.5152 15.2329C61.5152 17.201 61.1029 18.9421 60.2783 20.4606C59.4536 21.9791 58.2718 23.1626 56.7349 24.0155C55.1981 24.8685 53.3988 25.2938 51.335 25.2938H45.2603V5.17188ZM51.335 23.0216C53.7163 23.0216 55.6038 22.3383 57.0017 20.9697C58.3974 19.6011 59.0964 17.6902 59.0964 15.2351C59.0964 12.7799 58.3974 10.8691 57.0017 9.50041C55.606 8.13176 53.7163 7.44854 51.335 7.44854H47.6241V23.0194H51.335V23.0216ZM65.1953 25.1285C64.3707 24.7164 63.7334 24.15 63.2836 23.4271C62.8338 22.7064 62.6089 21.8865 62.6089 20.9675C62.6089 19.449 63.18 18.2655 64.3244 17.4125C65.4665 16.5596 66.9108 16.1343 68.6549 16.1343C69.517 16.1343 70.3174 16.229 71.0583 16.4164C71.7991 16.6037 72.3658 16.8197 72.7605 17.0621V16.1916C72.7605 15.1227 72.3857 14.2653 71.636 13.6196C70.8863 12.9738 69.9382 12.6498 68.796 12.6498C67.989 12.6498 67.2503 12.8239 66.5734 13.17C65.8987 13.516 65.3651 13.9986 64.9704 14.618L63.1712 13.2691C63.7334 12.4074 64.5074 11.733 65.4908 11.2459C66.4742 10.7589 67.5678 10.5142 68.7673 10.5142C70.7165 10.5142 72.2489 11.0255 73.3647 12.046C74.4804 13.0686 75.0382 14.4593 75.0382 16.2202V25.2982H72.7605V23.2464H72.648C72.2357 23.9406 71.6161 24.5291 70.7915 25.0161C69.9668 25.5032 69.0385 25.7478 68.0066 25.7478C66.9593 25.7478 66.0222 25.5407 65.1953 25.1285ZM70.4828 23.0216C71.1751 22.6094 71.7286 22.0562 72.1409 21.3642C72.5532 20.6722 72.7605 19.9118 72.7605 19.0875C72.3107 18.7878 71.7572 18.5432 71.1024 18.3558C70.4453 18.1685 69.7529 18.0737 69.0209 18.0737C67.709 18.0737 66.7189 18.3448 66.0552 18.8892C65.3893 19.4336 65.0564 20.1366 65.0564 20.9961C65.0564 21.783 65.3563 22.4199 65.956 22.907C66.5558 23.394 67.3143 23.6387 68.2337 23.6387C69.0385 23.6387 69.7904 23.4337 70.4828 23.0216ZM77.5607 11.1886H79.8384V13.4653H79.9508C80.2882 12.6212 80.8593 11.9666 81.6663 11.4972C82.4711 11.0299 83.3531 10.7941 84.31 10.7941C84.7224 10.7941 85.0685 10.8228 85.3508 10.8779V13.3242C85.031 13.2493 84.6011 13.2118 84.0565 13.2118C82.8371 13.2118 81.8493 13.6152 81.0908 14.4196C80.3323 15.2262 79.9508 16.2753 79.9508 17.5668V25.5208H77.5607V11.1886ZM92.4044 25.4613C91.9083 25.2718 91.4916 25.0139 91.152 24.6877C90.7771 24.3263 90.4949 23.9053 90.3075 23.4293C90.1201 22.9532 90.0253 22.3714 90.0253 21.6838V13.1281H87.5226V10.9638H90.0253V6.91739H92.4154V10.9638H95.9015V13.1281H92.4154V21.1152C92.4154 21.9196 92.5654 22.5125 92.8652 22.8959C93.2202 23.3169 93.7362 23.5285 94.4109 23.5285C94.9533 23.5285 95.4803 23.3698 95.9852 23.0502V25.3842C95.703 25.5142 95.4186 25.609 95.1275 25.6663C94.8365 25.7236 94.466 25.75 94.0162 25.75C93.4407 25.7478 92.9027 25.6509 92.4044 25.4613Z" fill="white"/>
<path d="M6.1357 24.7296L1.00257 19.5988C0.394007 18.9729 0.0147552 18.0914 0.0147552 17.2296C0.0147552 16.8307 0.23966 16.207 0.409442 15.8477L5.14788 5.98071L6.1357 24.7296Z" fill="#C0C2C4"/>
<path d="M23.7092 6.96811L18.576 1.83734C18.1284 1.38774 17.1935 0.849976 16.4042 0.849976C15.725 0.849976 15.0591 0.98662 14.627 1.24448L5.15009 5.98074L23.7092 6.96811ZM12.2566 30.8478H24.697V25.5187L15.4163 22.5588L6.92728 25.5187L12.2566 30.8478Z" fill="white"/>
<path d="M5.15009 21.9681C5.15009 23.5505 5.34853 23.9406 6.1379 24.7318L6.92728 25.5208H24.697L16.0095 15.6538L5.15009 5.98291V21.9681Z" fill="#DADBDC"/>
<path d="M20.9441 5.98071H5.14787L24.6948 25.5186H30.0263V13.2824L23.7092 6.96808C22.8228 6.07769 22.0334 5.98071 20.9441 5.98071Z" fill="#C0C2C4"/>
<path opacity="0.2" d="M6.33414 24.928C5.54476 24.1345 5.34632 23.3544 5.34632 21.9681V6.17907L5.14787 5.98071V21.9659C5.14787 23.3544 5.14787 23.7378 6.33414 24.928Z" fill="white"/>
<path opacity="0.2" d="M29.8301 13.0862V25.3224H24.4985L24.697 25.5186H30.0286V13.2845L29.8301 13.0862Z" fill="#263238"/>
<path opacity="0.2" d="M23.7092 6.96808C22.7302 5.98953 21.9276 5.98071 20.7479 5.98071H5.15009L5.34853 6.17907H20.7501C21.3366 6.17907 22.825 6.07989 23.7092 6.96808Z" fill="white"/>
</g>
<defs>
<clipPath id="clip0_2_1054">
<rect width="96" height="30" fill="white" transform="translate(0 0.849976)"/>
</clipPath>
</defs>
</svg>
