<svg width="120" height="36" viewBox="0 0 120 36" fill="none" xmlns="http://www.w3.org/2000/svg">
<g clip-path="url(#clip0_2_1086)">
<path d="M35.878 27.8144H33.6303V10.457H43.8409V12.5885H35.878V18.2864H43.0592V20.3693H35.878V27.8119V27.8144ZM48.0697 12.9549C47.5341 13.4878 46.6909 13.5723 46.0604 13.1547C45.4299 12.7371 45.1813 11.9352 45.4709 11.2384C45.7605 10.5415 46.5063 10.1444 47.2521 10.2904C47.9979 10.4365 48.5336 11.0847 48.5362 11.8379C48.5438 12.258 48.3747 12.6628 48.0697 12.9523V12.9549ZM48.0697 27.8144H45.822V15.9345H48.0697V27.8144ZM53.0033 27.8144H50.7556V15.9345H52.9059V17.8739H53.0033C53.2621 17.1899 53.7619 16.6237 54.4078 16.2727C55.0254 15.8781 55.7405 15.6604 56.4734 15.6424C57.0501 15.6271 57.6216 15.7244 58.1598 15.9345L57.3038 18.0174C56.9194 17.8893 56.5119 17.8329 56.107 17.8457C55.2817 17.8509 54.4975 18.1967 53.9439 18.8039C53.316 19.4419 53.0033 20.2796 53.0033 21.3121V27.8093V27.8144ZM64.3185 28.1936C62.5091 28.1936 61.0405 27.5967 59.9103 26.4002C58.7801 25.2038 58.2137 23.6973 58.2111 21.8757C58.1792 20.2346 58.7677 18.6418 59.859 17.4153C60.3779 16.81 61.0254 16.3282 61.7544 16.005C62.4834 15.6819 63.2753 15.5256 64.0724 15.5476C65.8485 15.5476 67.2684 16.1215 68.3371 17.2693C69.4058 18.4171 69.9389 19.9517 69.9364 21.8757L69.9107 22.2882H60.4536C60.5177 23.4847 60.9226 24.43 61.6633 25.1295C62.3592 25.8059 63.294 26.1806 64.2647 26.1722C65.8767 26.1722 66.9685 25.4933 67.5375 24.1354L69.5417 24.9604C69.1367 25.9006 68.4652 26.7025 67.6118 27.2739C66.7148 27.8887 65.6153 28.1936 64.3159 28.1936H64.3185ZM67.5452 20.4282C67.4965 19.7493 67.1838 19.1037 66.6046 18.4888C66.0254 17.8739 65.1642 17.5742 64.0212 17.587C63.2292 17.5742 62.4578 17.8509 61.8581 18.3633C61.2306 18.9085 60.7904 19.6372 60.5997 20.4462L67.5426 20.4282H67.5452ZM78.0607 28.1936C77.2099 28.2115 76.3692 28.0143 75.6132 27.6248C74.9506 27.2945 74.3894 26.7918 73.9883 26.1696H73.8909V27.8144H71.7406V10.457H73.9883V15.9371L73.8909 17.5844H73.9883C74.3901 16.9629 74.9512 16.4604 75.6132 16.1292C76.3667 15.7347 77.2073 15.5348 78.0607 15.5476C79.6087 15.5476 80.944 16.1548 82.0691 17.3667C83.1942 18.5785 83.7555 20.0824 83.7555 21.8757C83.7555 23.6691 83.1942 25.173 82.0691 26.3848C80.944 27.5967 79.6087 28.1987 78.0607 28.1936ZM77.6942 26.1568C78.7194 26.1645 79.6959 25.7367 80.3827 24.9809C81.1311 24.1969 81.5078 23.1593 81.5078 21.8655C81.5078 20.5717 81.1337 19.5341 80.3827 18.7501C79.6907 18.002 78.7143 17.5767 77.6917 17.5742C76.6691 17.5716 75.6926 17.9943 74.9955 18.7373C74.2548 19.5136 73.8858 20.5538 73.8858 21.8655C73.8858 23.1772 74.26 24.22 75.0083 25.0014C75.6978 25.7546 76.6793 26.1773 77.7045 26.1671L77.6968 26.1568H77.6942ZM89.4784 28.1936C88.2072 28.1936 87.1436 27.8298 86.2902 27.1022C85.4368 26.3746 85.0113 25.4138 85.0088 24.2174C85.0088 22.9236 85.5136 21.9116 86.5234 21.1763C87.5332 20.441 88.7788 20.0747 90.2601 20.0747C91.58 20.0747 92.6616 20.3181 93.5048 20.8023V20.4641C93.5381 19.6648 93.2049 18.8962 92.6001 18.3684C91.985 17.8432 91.193 17.5639 90.3806 17.5895C89.7604 17.5819 89.1478 17.7407 88.6096 18.0507C88.107 18.3259 87.7211 18.7737 87.523 19.3112L85.4701 18.4376C85.7469 17.7253 86.2928 17.0618 87.1103 16.452C87.9279 15.8423 88.9992 15.54 90.337 15.5425C91.8645 15.5425 93.1357 15.9832 94.1532 16.8671C95.1706 17.7509 95.6755 19.0038 95.6678 20.6255V27.8144H93.5099V26.1671H93.4125C92.5155 27.5172 91.2033 28.191 89.4784 28.191H89.4759L89.4784 28.1936ZM89.8449 26.1568C90.7906 26.1543 91.6979 25.7879 92.3771 25.1372C93.0998 24.5325 93.5201 23.641 93.5227 22.7007C92.8871 22.1832 91.9311 21.9244 90.6599 21.9244C89.5681 21.9244 88.7455 22.1576 88.1919 22.6264C87.9373 22.8198 87.7302 23.0687 87.5863 23.3542C87.4424 23.6397 87.3655 23.9541 87.3615 24.2738C87.3565 24.551 87.4245 24.8247 87.5585 25.0675C87.6925 25.3103 87.8879 25.5136 88.1252 25.6572C88.6349 25.9966 89.2352 26.1743 89.8475 26.1671V26.1568H89.8449ZM102.28 28.1936C100.945 28.1936 99.8402 27.8708 98.9714 27.2226C98.1257 26.6026 97.4644 25.7648 97.0621 24.799L99.0662 23.974C99.7019 25.4625 100.783 26.2055 102.311 26.2055C102.918 26.2311 103.518 26.0697 104.028 25.7443C104.235 25.6176 104.406 25.4394 104.524 25.227C104.641 25.0146 104.702 24.7753 104.699 24.5325C104.699 23.7562 104.154 23.231 103.059 22.9569L100.64 22.3753C99.8428 22.1653 99.1021 21.7912 98.4665 21.2737C98.1331 21.0162 97.8658 20.6829 97.6871 20.3015C97.5084 19.9201 97.4232 19.5015 97.4388 19.0806C97.4388 18.0302 97.9078 17.1771 98.8433 16.5238C99.8223 15.8576 100.991 15.5143 102.178 15.5425C103.169 15.5271 104.148 15.7757 105.01 16.2599C105.825 16.7185 106.455 17.4435 106.793 18.3095L104.84 19.1011C104.402 18.0507 103.49 17.5255 102.103 17.5255C101.514 17.505 100.929 17.6485 100.417 17.938C100.211 18.0428 100.039 18.2023 99.9178 18.3989C99.7971 18.5956 99.733 18.8217 99.7326 19.0524C99.7326 19.7314 100.263 20.1925 101.322 20.4359L103.69 20.9944C104.812 21.2481 105.645 21.6887 106.183 22.319C106.704 22.9082 106.991 23.6666 106.988 24.4505C106.998 25.4958 106.509 26.4848 105.668 27.1176C104.789 27.8324 103.656 28.1885 102.272 28.1885L102.28 28.1936ZM114.374 28.1936C112.565 28.1936 111.096 27.5967 109.966 26.4002C108.836 25.2038 108.27 23.6922 108.267 21.8655C108.235 20.2243 108.824 18.6315 109.915 17.4051C110.436 16.8016 111.086 16.3218 111.816 16.0005C112.546 15.6792 113.339 15.5245 114.136 15.5476C115.917 15.5476 117.34 16.1215 118.401 17.2693C119.462 18.4171 119.995 19.9517 120 21.8757L119.974 22.2882H110.51C110.574 23.4847 110.979 24.43 111.719 25.1295C112.414 25.8058 113.354 26.1799 114.326 26.1671C115.938 26.1671 117.03 25.4881 117.599 24.1303L119.603 24.9553C119.198 25.8955 118.526 26.6974 117.673 27.2687C116.776 27.8836 115.676 28.1936 114.372 28.1936H114.374ZM117.601 20.4282C117.552 19.7493 117.24 19.1037 116.661 18.4888C116.081 17.8739 115.223 17.5742 114.082 17.587C113.29 17.5742 112.519 17.8509 111.919 18.3633C111.292 18.9085 110.851 19.6372 110.661 20.4462L117.601 20.4282Z" fill="white"/>
<path d="M0.0128174 29.1466L4.14677 2.69925C4.19803 2.37388 4.44919 2.12025 4.77212 2.06388C5.09504 2.00752 5.41797 2.16636 5.57431 2.45587L9.84922 10.4288L11.5535 7.18529C11.6843 6.93422 11.9457 6.77794 12.2302 6.77794C12.5146 6.77794 12.7735 6.93422 12.9068 7.18529L24.4449 29.1466H0.0128174Z" fill="#DCDDDE"/>
<path d="M14.2958 18.8448L9.84922 10.4261L0.0128174 29.1466L14.2958 18.8448Z" fill="#B8BABC"/>
<path d="M24.4475 29.1466L21.2797 9.55769C21.231 9.27587 21.0311 9.04529 20.7595 8.95818C20.4878 8.87108 20.1905 8.94281 19.988 9.14521L0.0128174 29.1466L11.064 35.3415C11.4052 35.5318 11.7895 35.6317 12.1802 35.6317C12.5709 35.6317 12.9551 35.5318 13.2963 35.3415L24.4449 29.1466H24.4475Z" fill="white"/>
<path d="M21.2797 9.55769C21.231 9.27588 21.0311 9.0453 20.7595 8.95819C20.4878 8.87108 20.1905 8.94282 19.988 9.14521L16.0232 13.1189L12.9068 7.18529C12.776 6.93422 12.5146 6.77794 12.2301 6.77794C11.9457 6.77794 11.6868 6.93422 11.5535 7.18529L9.84922 10.4288L5.5743 2.45843C5.42053 2.16892 5.09504 2.01008 4.77212 2.06644C4.44919 2.12281 4.19546 2.37901 4.14677 2.70182L0.0128145 29.1466H0L0.0128145 29.162L0.120456 29.2158L19.9804 9.33993C20.1828 9.13753 20.4801 9.06323 20.7543 9.15034C21.0286 9.23745 21.2285 9.46802 21.2746 9.7524L24.4142 29.1646L24.4449 29.1466L21.2772 9.55769H21.2797ZM0.0486951 29.1108L4.14677 2.88884C4.19546 2.56347 4.44919 2.30727 4.77212 2.25347C5.09504 2.19967 5.41797 2.35595 5.5743 2.64545L9.84922 10.6184L11.5535 7.37488C11.6843 7.12381 11.9457 6.96753 12.2301 6.96753C12.5146 6.96753 12.7735 7.12381 12.9068 7.37488L15.9617 13.1803L0.0486951 29.1108Z" fill="white" fill-opacity="0.2"/>
<path opacity="0.2" d="M13.2989 35.157C12.9577 35.3473 12.5734 35.4472 12.1827 35.4472C11.792 35.4472 11.4078 35.3473 11.0666 35.157L0.0410098 28.9775L0.0153809 29.1466L11.0666 35.3415C11.4078 35.5318 11.792 35.6316 12.1827 35.6316C12.5734 35.6316 12.9577 35.5318 13.2989 35.3415L24.4475 29.1466L24.4193 28.9698L13.3014 35.1545L13.2989 35.157Z" fill="#A52714"/>
</g>
<defs>
<clipPath id="clip0_2_1086">
<rect width="120" height="34.8594" fill="white" transform="translate(0 0.790039)"/>
</clipPath>
</defs>
</svg>
