<svg width="166" height="31" viewBox="0 0 166 31" fill="none" xmlns="http://www.w3.org/2000/svg">
<path fill-rule="evenodd" clip-rule="evenodd" d="M26.7433 0.922241C27.6432 0.922241 28.4768 1.40726 28.9003 2.20092C29.0996 2.57009 29.2002 2.9844 29.1925 3.40382C29.1848 3.82324 29.0689 4.23357 28.8562 4.59514L28.8429 4.6216L25.054 10.9577C24.844 11.31 24.5473 11.6028 24.1922 11.8081C23.837 12.0134 23.4352 12.1244 23.0249 12.1305H18.6714L20.471 16.2488L20.4798 16.262L20.4931 16.2797C20.9165 17.0469 20.9077 17.9552 20.4666 18.7091L20.4534 18.7356L16.6644 25.0717C16.4545 25.424 16.1578 25.7168 15.8026 25.9221C15.4474 26.1274 15.0456 26.2384 14.6354 26.2446H9.2982L5.47836 30.2702L5.46953 30.279C5.11225 30.645 4.62264 30.8478 4.1198 30.8478C3.74446 30.8455 3.37804 30.7332 3.06597 30.5247C2.75391 30.3162 2.50992 30.0207 2.36426 29.6749L2.35544 29.6573L0.339652 25.0496L0.33083 25.032L0.322008 25.0144C0.322008 25.0144 0.322008 25.01 0.317597 25.0056C0.109157 24.6336 0.00190958 24.2136 0.00655333 23.7873C0.0111971 23.361 0.127569 22.9434 0.344063 22.5761L0.357295 22.5496L4.03158 16.4031L1.32328 10.2037L1.3718 10.1773C1.25594 9.5998 1.35308 8.99994 1.64528 8.48851L1.66292 8.46206L1.67616 8.4356L5.46071 2.0951C5.88857 1.3808 6.66489 0.93106 7.48973 0.922241L26.7433 0.922241ZM6.84574 26.1961H2.81858L4.0007 28.9298V28.9386C4.02276 28.9871 4.05363 29.0136 4.10215 29.0224C4.14626 29.0312 4.17714 29.0224 4.21243 28.9915H4.21684L6.84574 26.1916V26.1961ZM18.3582 16.7955H6.1444L9.48346 24.4279H14.6045C14.8162 24.4279 15.0191 24.3133 15.1338 24.1325L15.1426 24.1193L18.936 17.7788C19.0507 17.5892 19.0639 17.3687 18.9713 17.1747C18.8699 16.9454 18.6273 16.7955 18.3626 16.7955H18.3582ZM4.91817 18.3608L1.90552 23.4359C1.78643 23.6387 1.77761 23.8724 1.88788 24.084L1.90111 24.1061V24.1149L1.91876 24.1369L1.94081 24.1722L1.96728 24.2075L1.99374 24.2383H1.99815L2.0158 24.2604L2.02903 24.2736C2.12166 24.3574 2.24075 24.4103 2.36867 24.4235H7.55148L4.92258 18.3564L4.91817 18.3608ZM4.12862 12.1438L5.45189 15.1773L5.47836 15.1685C5.7076 15.0922 5.94696 15.0506 6.18851 15.0451H18.023L16.757 12.1438H4.12862ZM26.7125 2.69035H14.4987L17.8377 10.3228H22.9544C23.1661 10.3228 23.369 10.2081 23.4837 10.0273L23.4925 10.0141L27.2903 3.67361C27.405 3.48401 27.4138 3.26355 27.3256 3.06954C27.2241 2.84467 26.9903 2.69917 26.7301 2.69035H26.7125ZM12.6284 2.69035H7.53825C7.33094 2.69035 7.12804 2.80058 7.01335 2.98136L7.00453 2.99459L3.21997 9.33509C3.10529 9.52468 3.09647 9.74515 3.18469 9.94356C3.28614 10.1684 3.5155 10.3139 3.77575 10.3183H15.9631L12.6328 2.68594L12.6284 2.69035Z" fill="white"/>
<path fill-rule="evenodd" clip-rule="evenodd" d="M46.9188 10.4286L46.932 6.54404H36.2532V24.2075H40.2716V17.7215H45.5338L45.547 13.8369H40.2716V10.4286H46.9144H46.9188ZM49.1948 24.2031H52.9617V5.78564H49.1948V24.2075V24.2031ZM63.8434 11.5882V18.4755C63.8434 20.2656 62.8907 21.0725 61.5057 21.0725C60.3015 21.0725 59.3179 20.3406 59.3179 18.7753V11.5838H55.5509V19.3309C55.5509 22.7392 57.7123 24.5558 60.2486 24.5558C61.9071 24.5558 63.1642 23.9517 63.8434 23.017V24.2031H67.6104V11.5882H63.8434ZM77.7378 15.2214V11.5882H75.1486V8.05641L71.3817 9.19399V11.5926H69.3703V15.2258H71.3817V19.6924C71.3817 23.2242 72.8152 24.7145 77.7378 24.2075V20.7771C76.0793 20.8785 75.1486 20.7771 75.1486 19.6924V15.2258H77.7378V15.2214ZM87.4859 15.2214V11.5882H84.8967V8.05641L81.1298 9.19399V11.5926H79.1184V15.2258H81.1298V19.6924C81.1298 23.2242 82.5633 24.7145 87.4859 24.2075V20.7771C85.8274 20.8785 84.8967 20.7771 84.8967 19.6924V15.2258H87.4859V15.2214ZM93.2377 19.4102H102.157C102.258 18.9296 102.307 18.427 102.307 17.8979C102.307 14.0883 99.5938 11.2355 95.924 11.2355C91.9541 11.2355 89.2414 14.1368 89.2414 17.8979C89.2414 21.6589 91.9056 24.5602 96.2019 24.5602C98.5882 24.5602 100.45 23.6784 101.68 21.9632L98.6631 20.2215C98.1603 20.7771 97.2825 21.1783 96.2504 21.1783C94.8698 21.1783 93.7141 20.7242 93.2333 19.4102H93.2377ZM93.1627 16.5839C93.5156 15.2964 94.4684 14.5909 95.9019 14.5909C97.0311 14.5909 98.1647 15.12 98.5661 16.5839H93.1627ZM108.213 13.8325V11.5882H104.446V24.2031H108.213V18.5019C108.213 16.0019 110.423 15.3714 111.98 15.6271V11.3369C110.396 11.3369 108.716 12.1438 108.213 13.8369V13.8325ZM124.529 10.4286L124.542 6.54404H113.863V24.2075H117.881V17.7215H123.144L123.157 13.8369H117.881V10.4286H124.524H124.529ZM126.805 24.2031H130.572V5.78564H126.805V24.2075V24.2031ZM139.367 24.5602C143.059 24.5602 146.023 21.6589 146.023 17.8979C146.023 14.1368 143.059 11.2355 139.367 11.2355C135.675 11.2355 132.711 14.1368 132.711 17.8979C132.711 21.6589 135.675 24.5602 139.367 24.5602ZM139.367 20.8741C137.735 20.8741 136.478 19.688 136.478 17.8979C136.478 16.1077 137.735 14.9216 139.367 14.9216C140.999 14.9216 142.256 16.1077 142.256 17.8979C142.256 19.688 140.999 20.8741 139.367 20.8741ZM161.982 11.5882L160.173 18.352L158.215 11.5882H154.699L152.741 18.352L150.932 11.5882H146.914L150.932 24.2031H154.448L156.459 17.4657L158.471 24.2031H161.986L166.004 11.5882H161.986H161.982Z" fill="white"/>
</svg>
