<svg width="107" height="31" viewBox="0 0 107 31" fill="none" xmlns="http://www.w3.org/2000/svg">
<g clip-path="url(#clip0_2_1071)">
<path d="M14.9576 0.85556L24.2339 0.845337L8.67086 16.4018L4.61484 20.4355L0 15.8146L14.9576 0.85556ZM14.8713 14.7456C14.9917 14.5866 15.2132 14.665 15.3813 14.6445L24.2259 14.6468L16.165 22.7005L11.5263 18.0898L14.8713 14.7456Z" fill="white"/>
<path d="M37.2719 7.34387L47.3842 7.34728V9.33856C44.7377 9.33856 42.0912 9.3306 39.4448 9.34196C39.2426 9.40898 39.338 9.66229 39.3153 9.81792L39.3232 15.1738C39.3903 15.3749 39.6447 15.2783 39.8014 15.3033L46.5891 15.2999V17.2889H40.2592C39.9457 17.2889 39.6288 17.2684 39.3187 17.3218L39.2948 24.8825C38.6145 24.8553 37.9353 24.8803 37.2549 24.8655V7.66534L37.2719 7.34387ZM49.8364 7.34728H51.9127V19.2472L51.8911 24.8507C51.2153 24.8382 50.5395 24.8348 49.8648 24.853C49.8125 24.5758 49.8341 24.2941 49.8341 24.0147L49.8364 7.34728ZM70.1585 8.82285H72.2416L72.245 12.3453C73.2638 12.3703 74.2884 12.2999 75.3049 12.3806C75.2765 13.0121 75.3004 13.6437 75.289 14.2753C74.2759 14.2776 73.2638 14.2855 72.2518 14.2707L72.2439 21.2839C72.2655 21.9337 72.404 22.7186 73.0355 23.0537C73.7568 23.4638 74.6427 23.2707 75.3254 22.8754V24.9155C74.5734 25.2563 73.7159 25.2972 72.9083 25.187C71.7702 25.0132 70.6799 24.2373 70.3357 23.1094C70.1074 22.4914 70.1596 21.8246 70.1551 21.1794L70.1506 14.3491L70.0994 14.2912C69.3805 14.2526 68.6592 14.2969 67.9391 14.2719C67.9437 13.6289 67.9141 12.986 67.955 12.3442C68.6865 12.3317 69.4214 12.3772 70.1517 12.3215L70.1585 8.82285ZM78.9588 8.81603C79.6517 8.83988 80.3446 8.80808 81.0363 8.83193L81.084 8.88419C81.1101 10.0406 81.0488 11.2003 81.1112 12.3544C82.0983 12.3363 83.0853 12.351 84.0712 12.3453L84.078 14.2605C83.0853 14.298 82.0892 14.2753 81.0965 14.2696L81.0851 21.4043C81.084 22.0257 81.2634 22.7606 81.8643 23.0662C82.6014 23.4683 83.4953 23.2616 84.1802 22.8504L84.1779 24.9019C83.4476 25.2313 82.6241 25.2949 81.8359 25.204C80.8125 25.0677 79.8107 24.4895 79.3303 23.5524C79.0986 23.0617 78.9691 22.5187 78.9475 21.9769V14.2776C78.2285 14.2764 77.5107 14.2798 76.7928 14.2776L76.7974 12.3385C77.505 12.3578 78.2126 12.3329 78.9202 12.3567C78.9952 11.1799 78.9146 9.99512 78.9588 8.81603ZM89.0699 12.4112C90.5079 11.8149 92.1673 11.8035 93.6359 12.3033C95.3181 12.8838 96.6197 14.3514 97.0968 16.0541C97.4091 16.9981 97.3966 18.0011 97.3523 18.9826L87.465 18.9928C87.5468 20.0458 87.8614 21.1192 88.5929 21.9098C89.6322 23.1219 91.4211 23.5717 92.9317 23.0957C93.9914 22.7834 94.8183 21.9678 95.3624 21.0306C95.9644 21.2998 96.5493 21.6065 97.149 21.8826C96.329 23.4456 94.8376 24.6872 93.0851 25.0234C91.646 25.2926 90.0717 25.2994 88.7519 24.5883C87.0391 23.7375 85.8601 22.0053 85.5239 20.1423C85.2797 18.7111 85.3558 17.1969 85.8942 15.8383C86.4587 14.3468 87.6002 13.0553 89.0699 12.4112ZM89.8525 14.2071C88.6429 14.766 87.8637 16.0076 87.6206 17.2889L95.2034 17.265C95.083 16.4279 94.7854 15.5771 94.172 14.9716C93.0975 13.8198 91.2609 13.5949 89.8525 14.2071ZM101.854 14.3718C102.645 12.4487 105.077 11.4389 107 12.2443V14.4888C106.192 14.1708 105.287 13.9743 104.434 14.2253C103.269 14.5718 102.407 15.6111 102.076 16.755C101.849 17.5274 101.934 18.3339 101.943 19.1257C101.855 20.1503 101.988 21.176 101.921 22.2006C101.975 23.0855 101.873 23.9704 101.948 24.8564C101.241 24.8905 100.535 24.8542 99.8296 24.878C99.7887 22.2074 99.8239 19.5358 99.8125 16.8641L99.8284 12.3669C100.491 12.3851 101.154 12.3647 101.817 12.3806C101.877 13.0439 101.743 13.7107 101.854 14.3718ZM54.8908 12.3419C55.595 12.3715 56.3049 12.2999 57.0057 12.3794L56.9955 19.8243C56.9887 20.7342 57.1182 21.7281 57.7474 22.4346C58.5595 23.3343 59.935 23.499 61.0458 23.1434C62.5303 22.6118 63.5662 21.0397 63.506 19.4676L63.5287 12.3419L65.6493 12.3465L65.6368 24.8473C64.9644 24.836 64.2931 24.8473 63.6219 24.8394L63.6139 23.0605C63.1789 23.6069 62.7223 24.1601 62.0987 24.5043C60.8221 25.3097 59.2024 25.4164 57.7724 25.0041C56.8501 24.7258 56.0471 24.0795 55.5848 23.2343C55.0362 22.3051 54.8976 21.2067 54.8658 20.148L54.8908 12.3419Z" fill="white"/>
<path d="M6.90237 22.7084L11.5263 18.0897L16.165 22.7004L16.1843 22.7209L11.5274 27.335L6.90237 22.7084Z" fill="#E0E1E2"/>
<path d="M11.5275 27.3351L16.1843 22.7209L24.2293 30.7747C21.199 30.7815 18.1697 30.7724 15.1405 30.7792C14.9679 30.8178 14.8611 30.6599 14.7509 30.5622L11.5275 27.3351Z" fill="#BEC0C2"/>
</g>
<defs>
<clipPath id="clip0_2_1071">
<rect width="107" height="29.99" fill="white" transform="translate(0 0.820068)"/>
</clipPath>
</defs>
</svg>
