<svg width="150" height="32" viewBox="0 0 150 32" fill="none" xmlns="http://www.w3.org/2000/svg">
<g clip-path="url(#clip0_2_1104)">
<path d="M57.2985 16.6736V22.7949C57.0917 23.1012 56.7625 23.4457 56.3108 23.8286C55.859 24.2037 55.235 24.533 54.4388 24.8162C53.6502 25.0919 52.6318 25.2297 51.3838 25.2297C50.3655 25.2297 49.4276 25.0536 48.5701 24.7014C47.7202 24.3415 46.9814 23.8209 46.3535 23.1395C45.7334 22.4504 45.251 21.6158 44.9065 20.6358C44.5696 19.6481 44.4011 18.5303 44.4011 17.2823V15.9845C44.4011 14.7365 44.5466 13.6225 44.8376 12.6424C45.1362 11.6624 45.5726 10.8317 46.1468 10.1503C46.721 9.46118 47.4254 8.94054 48.26 8.58835C49.0946 8.22849 50.0516 8.04856 51.1312 8.04856C52.4098 8.04856 53.4779 8.2706 54.3354 8.71468C55.2006 9.1511 55.8744 9.75596 56.3567 10.5293C56.8467 11.3026 57.1607 12.1831 57.2985 13.1707H55.0819C54.9824 12.5659 54.7833 12.0146 54.4847 11.5169C54.1938 11.0193 53.7765 10.6211 53.2329 10.3225C52.6893 10.0163 51.9887 9.86315 51.1312 9.86315C50.3579 9.86315 49.6879 10.0048 49.1214 10.2881C48.5548 10.5714 48.0877 10.9772 47.7202 11.5055C47.3527 12.0338 47.0771 12.6731 46.8933 13.4234C46.7172 14.1737 46.6292 15.0198 46.6292 15.9615V17.2823C46.6292 18.247 46.7402 19.1083 46.9622 19.8663C47.1919 20.6243 47.5173 21.2713 47.9384 21.8072C48.3595 22.3355 48.861 22.7375 49.4429 23.0131C50.0325 23.2888 50.6833 23.4266 51.3953 23.4266C52.1839 23.4266 52.8233 23.3615 53.3133 23.2314C53.8033 23.0935 54.1861 22.9328 54.4617 22.749C54.7374 22.5576 54.9479 22.3777 55.0934 22.2092V18.4652H51.2231V16.6736H57.2985ZM60.0893 18.9246V18.6604C60.0893 17.7646 60.2194 16.9339 60.4797 16.1683C60.7401 15.395 61.1152 14.725 61.6052 14.1584C62.0952 13.5842 62.6886 13.1401 63.3854 12.8262C64.0821 12.5046 64.8631 12.3438 65.7282 12.3438C66.6011 12.3438 67.3859 12.5046 68.0826 12.8262C68.787 13.1401 69.3842 13.5842 69.8742 14.1584C70.3719 14.725 70.7509 15.395 71.0112 16.1683C71.2715 16.9339 71.4017 17.7646 71.4017 18.6604V18.9246C71.4017 19.8204 71.2715 20.6511 71.0112 21.4168C70.7509 22.1824 70.3719 22.8524 69.8742 23.4266C69.3842 23.9932 68.7908 24.4372 68.0941 24.7588C67.405 25.0727 66.6241 25.2297 65.7512 25.2297C64.8784 25.2297 64.0936 25.0727 63.3968 24.7588C62.7001 24.4372 62.1029 23.9932 61.6052 23.4266C61.1152 22.8524 60.7401 22.1824 60.4797 21.4168C60.2194 20.6511 60.0893 19.8204 60.0893 18.9246ZM62.2139 18.6604V18.9246C62.2139 19.5448 62.2867 20.1305 62.4321 20.6817C62.5776 21.2254 62.7958 21.7077 63.0868 22.1288C63.3854 22.5499 63.7567 22.883 64.2008 23.128C64.6449 23.3653 65.1617 23.484 65.7512 23.484C66.3331 23.484 66.8423 23.3653 67.2787 23.128C67.7228 22.883 68.0903 22.5499 68.3812 22.1288C68.6722 21.7077 68.8904 21.2254 69.0358 20.6817C69.189 20.1305 69.2655 19.5448 69.2655 18.9246V18.6604C69.2655 18.0479 69.189 17.4699 69.0358 16.9262C68.8904 16.375 68.6683 15.8888 68.3697 15.4677C68.0788 15.0389 67.7113 14.702 67.2672 14.457C66.8308 14.212 66.3178 14.0895 65.7282 14.0895C65.1464 14.0895 64.6334 14.212 64.1893 14.457C63.7529 14.702 63.3854 15.0389 63.0868 15.4677C62.7958 15.8888 62.5776 16.375 62.4321 16.9262C62.2867 17.4699 62.2139 18.0479 62.2139 18.6604ZM73.5034 18.9246V18.6604C73.5034 17.7646 73.6336 16.9339 73.8939 16.1683C74.1542 15.395 74.5294 14.725 75.0194 14.1584C75.5094 13.5842 76.1028 13.1401 76.7995 12.8262C77.4962 12.5046 78.2772 12.3438 79.1424 12.3438C80.0152 12.3438 80.8 12.5046 81.4968 12.8262C82.2012 13.1401 82.7984 13.5842 83.2884 14.1584C83.786 14.725 84.165 15.395 84.4254 16.1683C84.6857 16.9339 84.8158 17.7646 84.8158 18.6604V18.9246C84.8158 19.8204 84.6857 20.6511 84.4254 21.4168C84.165 22.1824 83.786 22.8524 83.2884 23.4266C82.7984 23.9932 82.205 24.4372 81.5082 24.7588C80.8192 25.0727 80.0382 25.2297 79.1654 25.2297C78.2925 25.2297 77.5077 25.0727 76.811 24.7588C76.1143 24.4372 75.517 23.9932 75.0194 23.4266C74.5294 22.8524 74.1542 22.1824 73.8939 21.4168C73.6336 20.6511 73.5034 19.8204 73.5034 18.9246ZM75.6281 18.6604V18.9246C75.6281 19.5448 75.7008 20.1305 75.8463 20.6817C75.9918 21.2254 76.21 21.7077 76.5009 22.1288C76.7995 22.5499 77.1708 22.883 77.6149 23.128C78.059 23.3653 78.5758 23.484 79.1654 23.484C79.7473 23.484 80.2564 23.3653 80.6928 23.128C81.1369 22.883 81.5044 22.5499 81.7954 22.1288C82.0863 21.7077 82.3045 21.2254 82.45 20.6817C82.6031 20.1305 82.6797 19.5448 82.6797 18.9246V18.6604C82.6797 18.0479 82.6031 17.4699 82.45 16.9262C82.3045 16.375 82.0825 15.8888 81.7839 15.4677C81.4929 15.0389 81.1254 14.702 80.6813 14.457C80.2449 14.212 79.7319 14.0895 79.1424 14.0895C78.5605 14.0895 78.0475 14.212 77.6034 14.457C77.167 14.702 76.7995 15.0389 76.5009 15.4677C76.21 15.8888 75.9918 16.375 75.8463 16.9262C75.7008 17.4699 75.6281 18.0479 75.6281 18.6604ZM95.5311 12.5735H97.4605V24.7359C97.4605 25.8307 97.2385 26.7648 96.7944 27.5381C96.3503 28.3114 95.7301 28.8971 94.9339 29.2953C94.1453 29.7011 93.2341 29.904 92.2005 29.904C91.7717 29.904 91.2664 29.8351 90.6845 29.6972C90.1103 29.5671 89.5437 29.3412 88.9848 29.0196C88.4335 28.7057 87.9703 28.2808 87.5951 27.7448L88.7092 26.4815C89.2298 27.1094 89.7734 27.5458 90.34 27.7908C90.9142 28.0358 91.4808 28.1583 92.0397 28.1583C92.7135 28.1583 93.2954 28.032 93.7854 27.7793C94.2754 27.5266 94.6544 27.1515 94.9224 26.6538C95.198 26.1638 95.3358 25.5589 95.3358 24.8392V15.3069L95.5311 12.5735ZM86.975 18.9246V18.6834C86.975 17.734 87.086 16.8727 87.308 16.0993C87.5377 15.3184 87.8631 14.6484 88.2842 14.0895C88.713 13.5306 89.2298 13.1018 89.8347 12.8032C90.4395 12.497 91.1209 12.3438 91.8789 12.3438C92.6599 12.3438 93.3413 12.4817 93.9232 12.7573C94.5128 13.0253 95.0104 13.4196 95.4162 13.9402C95.8297 14.4532 96.1551 15.0734 96.3924 15.8007C96.6298 16.5281 96.7944 17.3512 96.8863 18.27V19.3266C96.802 20.2377 96.6374 21.0569 96.3924 21.7843C96.1551 22.5116 95.8297 23.1318 95.4162 23.6448C95.0104 24.1578 94.5128 24.5521 93.9232 24.8277C93.3337 25.0957 92.6446 25.2297 91.856 25.2297C91.1133 25.2297 90.4395 25.0727 89.8347 24.7588C89.2375 24.4449 88.7245 24.0047 88.2957 23.4381C87.8669 22.8715 87.5377 22.2054 87.308 21.4397C87.086 20.6664 86.975 19.8281 86.975 18.9246ZM89.0996 18.6834V18.9246C89.0996 19.5448 89.1609 20.1267 89.2834 20.6703C89.4136 21.2139 89.6088 21.6924 89.8691 22.1059C90.1371 22.5193 90.4778 22.8447 90.8913 23.0821C91.3047 23.3117 91.7985 23.4266 92.3728 23.4266C93.0772 23.4266 93.6591 23.2773 94.1185 22.9787C94.5778 22.6801 94.9415 22.2858 95.2095 21.7958C95.4851 21.3058 95.6995 20.7736 95.8526 20.1994V17.4316C95.7684 17.0105 95.6383 16.6047 95.4622 16.2142C95.2937 15.8161 95.0717 15.4639 94.7961 15.1576C94.5281 14.8437 94.195 14.5949 93.7969 14.4111C93.3987 14.2273 92.9317 14.1355 92.3957 14.1355C91.8139 14.1355 91.3124 14.258 90.8913 14.503C90.4778 14.7403 90.1371 15.0696 89.8691 15.4907C89.6088 15.9041 89.4136 16.3865 89.2834 16.9377C89.1609 17.4813 89.0996 18.0632 89.0996 18.6834ZM102.996 7.35948V25H100.86V7.35948H102.996ZM111.564 25.2297C110.699 25.2297 109.914 25.0842 109.209 24.7933C108.513 24.4947 107.912 24.0774 107.406 23.5414C106.909 23.0055 106.526 22.37 106.258 21.635C105.99 20.9 105.856 20.096 105.856 19.2232V18.7408C105.856 17.7302 106.005 16.8305 106.304 16.0419C106.602 15.2457 107.008 14.5719 107.521 14.0206C108.034 13.4693 108.616 13.0521 109.267 12.7688C109.918 12.4855 110.591 12.3438 111.288 12.3438C112.176 12.3438 112.942 12.497 113.585 12.8032C114.236 13.1095 114.768 13.5383 115.181 14.0895C115.595 14.6331 115.901 15.2763 116.1 16.019C116.299 16.754 116.399 17.5579 116.399 18.4307V19.384H107.119V17.6498H114.274V17.489C114.244 16.9377 114.129 16.4018 113.93 15.8811C113.738 15.3605 113.432 14.9317 113.011 14.5949C112.59 14.258 112.015 14.0895 111.288 14.0895C110.806 14.0895 110.362 14.1929 109.956 14.3996C109.55 14.5987 109.202 14.8973 108.911 15.2954C108.62 15.6936 108.394 16.1797 108.233 16.754C108.072 17.3282 107.992 17.9905 107.992 18.7408V19.2232C107.992 19.8127 108.072 20.3678 108.233 20.8885C108.402 21.4015 108.643 21.8532 108.957 22.2437C109.278 22.6341 109.665 22.9404 110.117 23.1624C110.576 23.3845 111.097 23.4955 111.679 23.4955C112.429 23.4955 113.064 23.3424 113.585 23.0361C114.106 22.7299 114.561 22.3202 114.952 21.8072L116.238 22.8294C115.97 23.2352 115.629 23.6218 115.216 23.9893C114.802 24.3569 114.293 24.6555 113.688 24.8852C113.091 25.1148 112.383 25.2297 111.564 25.2297ZM121.418 8.27826V25H119.201V8.27826H121.418ZM128.423 15.8007V17.6153H120.935V15.8007H128.423ZM129.56 8.27826V10.0928H120.935V8.27826H129.56ZM134.189 12.5735V25H132.052V12.5735H134.189ZM131.892 9.27743C131.892 8.93289 131.995 8.64194 132.202 8.40459C132.416 8.16724 132.73 8.04856 133.144 8.04856C133.549 8.04856 133.859 8.16724 134.074 8.40459C134.296 8.64194 134.407 8.93289 134.407 9.27743C134.407 9.60666 134.296 9.88995 134.074 10.1273C133.859 10.357 133.549 10.4718 133.144 10.4718C132.73 10.4718 132.416 10.357 132.202 10.1273C131.995 9.88995 131.892 9.60666 131.892 9.27743ZM142.802 12.5735V14.2044H136.084V12.5735H142.802ZM138.358 9.55306H140.482V21.9221C140.482 22.3432 140.547 22.6609 140.677 22.8753C140.808 23.0897 140.976 23.2314 141.183 23.3003C141.39 23.3692 141.612 23.4036 141.849 23.4036C142.025 23.4036 142.209 23.3883 142.4 23.3577C142.599 23.3194 142.749 23.2888 142.848 23.2658L142.86 25C142.691 25.0536 142.469 25.1034 142.193 25.1493C141.925 25.2029 141.6 25.2297 141.217 25.2297C140.697 25.2297 140.218 25.1263 139.782 24.9196C139.345 24.7129 138.997 24.3683 138.737 23.886C138.484 23.396 138.358 22.7375 138.358 21.9106V9.55306Z" fill="white"/>
<path d="M8.96611 1.60254C4.02867 1.60254 0.00991821 5.61924 0.00991821 10.554C0.00991821 12.9257 0.966808 15.2019 2.63163 16.885L16.6209 30.8671C16.9654 31.2305 17.4438 31.4218 17.9413 31.4409V6.88165L15.3196 4.22291C13.6356 2.55875 11.3582 1.60254 8.96611 1.60254Z" fill="white"/>
<path d="M26.9357 1.60254C31.8921 1.60254 35.8919 5.61924 35.8919 10.5542C35.8919 12.9259 34.935 15.2021 33.2702 16.8852L19.2809 30.8673C18.9364 31.2307 18.458 31.4219 17.9605 31.4411V6.88165L20.6014 4.24209C22.2854 2.55894 24.5628 1.60254 26.9357 1.60254Z" fill="#97999C"/>
<path d="M24.6967 1.60254C28.4093 1.60254 31.433 5.61924 31.433 10.5542C31.433 12.9259 30.7249 15.2021 29.4618 16.8852L18.9364 30.8673C18.6684 31.2307 18.3241 31.4219 17.9413 31.4411V6.88165L19.9315 4.24209C21.2137 2.55894 22.9169 1.60254 24.6966 1.60254H24.6967Z" fill="#C2C4C6"/>
<path d="M22.4578 1.60254C24.9455 1.60254 26.9551 5.61924 26.9551 10.5542C26.9551 12.9259 26.4767 15.2021 25.6346 16.8852L18.6114 30.8673C18.4392 31.2307 18.1905 31.4219 17.9417 31.4411V6.88165L19.2621 4.24209C20.1232 2.55894 21.2715 1.60254 22.458 1.60254H22.4578Z" fill="#D8D9DA"/>
</g>
<defs>
<clipPath id="clip0_2_1104">
<rect width="150" height="30.7" fill="white" transform="translate(0 0.76001)"/>
</clipPath>
</defs>
</svg>
