<svg width="165" height="45" viewBox="0 0 165 45" fill="none" xmlns="http://www.w3.org/2000/svg">
<g clip-path="url(#clip0_2_1120)">
<path fill-rule="evenodd" clip-rule="evenodd" d="M37.8998 28.7899C40.8977 26.7682 40.8964 23.4892 37.8998 21.4663L25.5971 13.1663C22.5991 11.1446 17.7394 11.1446 14.7414 13.1663L2.4387 21.4674C-0.559283 23.4892 -0.557932 26.7682 2.4387 28.7911L14.7414 37.091C17.7394 39.1127 22.5991 39.1127 25.5971 37.091L37.8998 28.7911V28.7899Z" fill="#D5D7D8" stroke="#A1A3A6" stroke-width="0.220107"/>
<path fill-rule="evenodd" clip-rule="evenodd" d="M37.8998 23.0197C40.8977 20.998 40.8964 17.719 37.8998 15.6961L25.5971 7.39617C22.5991 5.37445 17.7394 5.37445 14.7414 7.39617L2.4387 15.6961C-0.559283 17.7178 -0.557932 20.9969 2.4387 23.0197L14.7414 31.3197C17.7394 33.3414 22.5991 33.3414 25.5971 31.3197L37.8998 23.0197Z" fill="#EFEFF0" stroke="#BABCBE" stroke-width="0.220107"/>
<path fill-rule="evenodd" clip-rule="evenodd" d="M37.8998 17.2496C40.8977 15.2279 40.8964 11.9489 37.8998 9.92598L25.5971 1.62603C22.5991 -0.395689 17.7394 -0.395689 14.7414 1.62603L2.4387 9.92598C-0.559283 11.9477 -0.557932 15.2267 2.4387 17.2496L14.7414 25.5495C17.7394 27.5713 22.5991 27.5713 25.5971 25.5495L37.8998 17.2496Z" fill="white" stroke="#E6E6E5" stroke-width="0.220107"/>
<path fill-rule="evenodd" clip-rule="evenodd" d="M12.8094 8.1079C11.1341 9.25866 11.1341 11.1259 12.8094 12.2766C16.0073 14.4751 23.4516 13.4519 24.2244 12.9205C24.9972 12.389 26.4847 7.27323 23.2868 5.07474C21.6115 3.92398 18.8959 3.92398 17.2206 5.07474C16.3518 5.67177 15.9344 6.46079 15.9654 7.24396C14.8279 7.22172 13.6781 7.5097 12.808 8.10673L12.8094 8.1079Z" fill="#939598"/>
<path d="M50.7911 32.27V13.0326H53.1206V21.5992H63.3781V13.0326H65.7076V32.27H63.3781V23.6658H53.1206V32.27H50.7911ZM76.1201 32.5706C74.7299 32.5706 73.5307 32.2638 72.5225 31.6501C71.5205 31.0301 70.7471 30.1659 70.2023 29.0575C69.6638 27.9428 69.3945 26.6466 69.3945 25.1687C69.3945 23.6908 69.6638 22.3883 70.2023 21.2611C70.7471 20.1276 71.5049 19.2447 72.4755 18.6122C73.4524 17.9734 74.5921 17.6541 75.8947 17.6541C76.6461 17.6541 77.3882 17.7793 78.1209 18.0298C78.8535 18.2803 79.5205 18.6873 80.1216 19.2509C80.7228 19.8083 81.2019 20.5472 81.5588 21.4677C81.9158 22.3883 82.0942 23.5217 82.0942 24.8681V25.8074H70.9726V23.8912H79.8398C79.8398 23.0771 79.677 22.3507 79.3514 21.712C79.032 21.0732 78.5749 20.5691 77.98 20.1996C77.3913 19.8302 76.6962 19.6454 75.8947 19.6454C75.0117 19.6454 74.2477 19.8646 73.6027 20.303C72.964 20.7351 72.4724 21.2987 72.1279 21.9938C71.7835 22.6889 71.6113 23.4341 71.6113 24.2294V25.5068C71.6113 26.5965 71.7992 27.5201 72.1749 28.2779C72.5569 29.0293 73.0861 29.6023 73.7624 29.9968C74.4387 30.3851 75.2246 30.5792 76.1201 30.5792C76.7025 30.5792 77.2285 30.4978 77.6982 30.335C78.1741 30.1659 78.5843 29.9154 78.9287 29.5835C79.2731 29.2454 79.5393 28.8258 79.7271 28.3248L81.8688 28.926C81.6434 29.6524 81.2645 30.2912 80.7322 30.8422C80.1999 31.3871 79.5424 31.8129 78.7596 32.1197C77.9768 32.4203 77.097 32.5706 76.1201 32.5706ZM89.7122 32.6082C88.7979 32.6082 87.9682 32.436 87.223 32.0915C86.4778 31.7409 85.886 31.2368 85.4476 30.5792C85.0093 29.9154 84.7901 29.1139 84.7901 28.1745C84.7901 27.3479 84.9529 26.6779 85.2786 26.1644C85.6042 25.6446 86.0394 25.2376 86.5842 24.9433C87.129 24.6489 87.7302 24.4298 88.3877 24.2857C89.0515 24.1354 89.7185 24.0164 90.3885 23.9288C91.2652 23.8161 91.976 23.7315 92.5208 23.6752C93.0719 23.6125 93.4726 23.5092 93.7231 23.3652C93.9799 23.2211 94.1083 22.9707 94.1083 22.6137V22.5386C94.1083 21.6118 93.8546 20.8916 93.3474 20.3781C92.8464 19.8646 92.0856 19.6079 91.0648 19.6079C90.0065 19.6079 89.1768 19.8396 88.5756 20.303C87.9744 20.7664 87.5517 21.2611 87.3075 21.7871L85.2034 21.0356C85.5791 20.1589 86.0801 19.4764 86.7063 18.9879C87.3388 18.4932 88.0277 18.1488 88.7729 17.9546C89.5243 17.7543 90.2633 17.6541 90.9897 17.6541C91.4531 17.6541 91.9854 17.7104 92.5865 17.8231C93.194 17.9296 93.7795 18.1519 94.3431 18.4901C94.9129 18.8282 95.3857 19.3386 95.7615 20.0212C96.1372 20.7037 96.3251 21.618 96.3251 22.764V32.27H94.1083V30.3162H93.9955C93.8452 30.6293 93.5948 30.9644 93.2441 31.3213C92.8934 31.6782 92.4269 31.982 91.8445 32.2324C91.2621 32.4829 90.5513 32.6082 89.7122 32.6082ZM90.0504 30.6168C90.9271 30.6168 91.666 30.4446 92.2672 30.1002C92.8746 29.7557 93.3317 29.3111 93.6386 28.7663C93.9517 28.2215 94.1083 27.6485 94.1083 27.0473V25.0184C94.0143 25.1311 93.8077 25.2344 93.4883 25.3284C93.1752 25.416 92.812 25.4943 92.3987 25.5632C91.9916 25.6258 91.594 25.6822 91.2057 25.7323C90.8237 25.7761 90.5138 25.8137 90.2758 25.845C89.6997 25.9202 89.1611 26.0423 88.6601 26.2113C88.1654 26.3742 87.7647 26.6215 87.4578 26.9534C87.1572 27.279 87.0069 27.7237 87.0069 28.2873C87.0069 29.0575 87.2919 29.6399 87.8617 30.0344C88.4378 30.4227 89.1674 30.6168 90.0504 30.6168ZM102.588 13.0326V32.27H100.371V13.0326H102.588ZM112.923 17.8419V19.7206H105.446V17.8419H112.923ZM107.625 14.3852H109.842V28.137C109.842 28.7632 109.933 29.2329 110.114 29.546C110.302 29.8528 110.54 30.0595 110.828 30.1659C111.123 30.2661 111.433 30.3162 111.758 30.3162C112.002 30.3162 112.203 30.3037 112.359 30.2786C112.516 30.2473 112.641 30.2223 112.735 30.2035L113.186 32.1949C113.036 32.2512 112.826 32.3076 112.557 32.364C112.287 32.4266 111.946 32.4579 111.533 32.4579C110.907 32.4579 110.293 32.3232 109.692 32.054C109.097 31.7847 108.602 31.3745 108.208 30.8235C107.819 30.2724 107.625 29.5773 107.625 28.7381V14.3852ZM118.784 23.5906V32.27H116.568V13.0326H118.784V20.0963H118.972C119.31 19.3511 119.818 18.7593 120.494 18.321C121.177 17.8764 122.085 17.6541 123.218 17.6541C124.201 17.6541 125.062 17.8513 125.801 18.2458C126.54 18.6341 127.113 19.2321 127.52 20.04C127.934 20.8415 128.14 21.8623 128.14 23.1022V32.27H125.923V23.2525C125.923 22.1065 125.626 21.2204 125.031 20.5942C124.442 19.9617 123.625 19.6454 122.579 19.6454C121.853 19.6454 121.202 19.7989 120.626 20.1057C120.056 20.4126 119.605 20.8603 119.273 21.4489C118.947 22.0376 118.784 22.7515 118.784 23.5906ZM132.496 32.27V13.0326H134.826V22.5761H135.051L143.693 13.0326H146.737L138.658 21.712L146.737 32.27H143.919L137.231 23.3276L134.826 26.0329V32.27H132.496ZM150.355 32.27V17.8419H152.572V32.27H150.355ZM151.482 15.4372C151.05 15.4372 150.678 15.2901 150.365 14.9958C150.058 14.7014 149.904 14.3476 149.904 13.9343C149.904 13.521 150.058 13.1672 150.365 12.8729C150.678 12.5785 151.05 12.4314 151.482 12.4314C151.915 12.4314 152.284 12.5785 152.591 12.8729C152.904 13.1672 153.061 13.521 153.061 13.9343C153.061 14.3476 152.904 14.7014 152.591 14.9958C152.284 15.2901 151.915 15.4372 151.482 15.4372ZM162.907 17.8419V19.7206H155.43V17.8419H162.907ZM157.609 14.3852H159.826V28.137C159.826 28.7632 159.917 29.2329 160.098 29.546C160.286 29.8528 160.524 30.0595 160.812 30.1659C161.107 30.2661 161.417 30.3162 161.742 30.3162C161.987 30.3162 162.187 30.3037 162.343 30.2786C162.5 30.2473 162.625 30.2223 162.719 30.2035L163.17 32.1949C163.02 32.2512 162.81 32.3076 162.541 32.364C162.271 32.4266 161.93 32.4579 161.517 32.4579C160.891 32.4579 160.277 32.3232 159.676 32.054C159.081 31.7847 158.586 31.3745 158.192 30.8235C157.803 30.2724 157.609 29.5773 157.609 28.7381V14.3852Z" fill="white"/>
</g>
<defs>
<clipPath id="clip0_2_1120">
<rect width="165" height="45" fill="white"/>
</clipPath>
</defs>
</svg>
