<svg width="124" height="39" viewBox="0 0 124 39" fill="none" xmlns="http://www.w3.org/2000/svg">
<g clip-path="url(#clip0_2_1130)">
<path fill-rule="evenodd" clip-rule="evenodd" d="M0.437195 0.699904H19.3729C19.3729 3.49027 19.2859 6.28789 19.4599 9.071C20.0399 3.90339 24.7013 0.185317 29.8702 0.757885C30.3269 0.808619 30.7836 0.895592 31.2258 1.01156C33.6327 1.66385 35.6988 3.22211 36.982 5.36018C37.832 6.79531 38.2895 8.42873 38.3086 10.0965C38.3277 11.7643 37.9077 13.4077 37.0907 14.8619C35.8024 17.0811 33.6892 18.7014 31.2113 19.37C30.6169 19.4642 29.8774 19.8556 29.399 19.2468C29.2467 19.5294 29.1162 19.8266 28.9857 20.1238L29.3845 19.399C30.4356 19.9716 31.6681 20.0005 32.7337 20.5296C35.4451 21.7835 37.4169 24.2187 38.0839 27.1323C39.222 32.2129 36.025 37.2501 30.9431 38.388C30.2472 38.5402 29.544 38.6199 28.8335 38.6127C24.2011 38.7141 19.8224 34.8583 19.4961 30.2126C19.2424 33.0102 19.4164 35.8223 19.3657 38.6199H0.451694V0.772381L0.437195 0.707152V0.699904ZM19.3729 17.2609C19.4309 20.8485 19.2352 24.4434 19.4889 28.0238C19.7181 25.9691 20.6164 24.0468 22.0455 22.5526C23.4746 21.0583 25.3553 20.0751 27.3981 19.7541C27.7316 19.6889 28.6233 20.1165 28.4565 19.4932C23.9908 19.6816 19.8369 15.7027 19.4961 11.2743C19.2787 13.2602 19.4092 15.2678 19.3729 17.2609ZM112.254 13.3979C113.543 12.2165 115.247 11.5937 116.995 11.6657C118.807 11.6657 120.779 12.0571 122.069 13.4124C122.59 13.9289 122.915 14.609 122.992 15.3379C123.069 16.0668 122.891 16.7998 122.49 17.4131C121.841 18.2569 120.935 18.8672 119.909 19.1526C121.069 19.37 122.12 19.9716 122.896 20.8558C123.381 21.5494 123.613 22.3885 123.554 23.2327C123.494 24.077 123.147 24.8753 122.57 25.4943C121.236 26.9004 119.199 27.357 117.321 27.3932C115.443 27.4294 113.326 27.0163 111.891 25.6465C111.253 25.0357 110.855 24.2163 110.77 23.3372C110.685 22.4581 110.918 21.5776 111.427 20.8558C112.207 19.9648 113.264 19.3623 114.428 19.1453C113.45 18.7612 112.384 18.3481 111.811 17.3986C111.413 16.7828 111.24 16.0484 111.32 15.3195C111.401 14.5906 111.73 13.9119 112.254 13.3979ZM116.212 14.456C115.964 14.5567 115.742 14.7105 115.561 14.9066C115.379 15.1027 115.243 15.3364 115.162 15.5909C115.081 15.8454 115.058 16.1146 115.092 16.3794C115.127 16.6443 115.22 16.8982 115.364 17.1232C116.35 18.6525 119.351 18.0654 119.257 16.0795C119.257 14.5865 117.43 13.9052 116.212 14.456ZM115.922 20.9138C115.658 21.0393 115.425 21.222 115.241 21.4486C115.056 21.6751 114.925 21.94 114.855 22.2238C114.786 22.5076 114.78 22.8033 114.839 23.0894C114.899 23.3756 115.021 23.645 115.197 23.8781C116.393 25.4871 119.692 24.8348 119.59 22.6097C119.525 20.863 117.321 20.218 115.965 20.9138H115.922ZM44.188 12.0063H48.0012V27.0091H44.1735V12.0063H44.188ZM52.6699 12.963C55.5334 11.1438 59.7672 11.325 62.174 13.84C63.1435 14.9129 63.7121 16.2879 63.7834 17.732H60.1369C60.0082 16.9655 59.6637 16.2515 59.1437 15.6737C58.5867 15.1505 57.8576 14.8492 57.0937 14.8265C56.3298 14.8038 55.584 15.0613 54.997 15.5505C54.5201 16.0517 54.1512 16.6454 53.913 17.2949C53.6748 17.9444 53.5725 18.6359 53.6123 19.3265C53.4891 20.7471 53.9168 22.1676 54.8085 23.2838C55.12 23.5932 55.4933 23.8335 55.9039 23.9891C56.3146 24.1447 56.7534 24.212 57.1918 24.1867C57.6303 24.1614 58.0584 24.0441 58.4484 23.8423C58.8385 23.6405 59.1816 23.3588 59.4554 23.0156C59.7889 22.5083 60.0354 21.9429 60.1804 21.3559H63.8051C63.7616 22.1986 63.5462 23.0236 63.1722 23.7801C62.7982 24.5366 62.2735 25.2088 61.6303 25.7552C60.4494 26.6048 59.0613 27.1205 57.6121 27.2481C56.1628 27.3756 54.706 27.1103 53.3948 26.48C51.1257 25.4146 49.9078 22.9141 49.7701 20.5006C49.5091 17.7538 50.2703 14.5938 52.6699 12.9775V12.963ZM70.0687 12.0861C72.4393 11.383 74.9984 11.7744 77.05 13.1442C78.6811 14.4343 79.6743 16.3622 79.7903 18.435C80.0295 20.8703 79.5076 23.5592 77.7024 25.3204C75.8973 27.0816 72.9685 27.5671 70.4892 27.0453C69.4835 26.8425 68.5398 26.4054 67.7349 25.7694C66.93 25.1334 66.2865 24.3166 65.8567 23.3852C64.9068 21.1687 64.7986 18.6818 65.5523 16.3912C65.8845 15.353 66.4721 14.4148 67.2612 13.6626C68.0503 12.9105 69.0156 12.3684 70.0687 12.0861ZM71.2576 15.0721C70.6179 15.3816 70.0728 15.8568 69.6788 16.4482C69.2849 17.0395 69.0566 17.7256 69.0175 18.435C68.713 20.0513 69.0828 21.7255 70.0397 23.0663C70.6033 23.7073 71.3978 24.0992 72.2496 24.1563C73.1013 24.2133 73.9411 23.9309 74.5851 23.3707C75.063 22.8699 75.4331 22.2764 75.6725 21.6269C75.9119 20.9774 76.0156 20.2858 75.977 19.5947C76.028 18.903 75.9414 18.2082 75.7225 17.5501C75.5035 16.8921 75.1564 16.2839 74.7011 15.7606C74.258 15.3211 73.6972 15.0188 73.0863 14.8902C72.4755 14.7617 71.8404 14.8122 71.2576 15.0359V15.0721ZM81.7694 12.0063H84.7852C86.96 14.9054 89.0624 17.8987 91.2373 20.8195V12.0063H94.862V27.0163H91.8535C89.6786 24.0593 87.5472 21.0805 85.3796 18.1234V27.0163H81.7549V12.0063H81.7694ZM98.0083 13.6588C99.3422 12.1513 101.474 11.6802 103.409 11.7816C105.127 11.8469 106.976 12.3905 108.056 13.8038C108.607 14.5865 108.926 15.4997 108.977 16.4564H105.454C105.055 14.6735 102.691 14.3328 101.329 15.1808C101.137 15.2977 100.982 15.4662 100.882 15.6669C100.782 15.8677 100.741 16.0926 100.763 16.3158C100.785 16.539 100.869 16.7516 101.006 16.929C101.144 17.1064 101.328 17.2415 101.539 17.3189C103.641 18.1814 106.186 17.9494 108.013 19.4932C110.086 21.2906 109.397 25.0015 107.077 26.2771C104.758 27.4802 102.039 27.6324 99.5959 26.6974C97.8705 26.0669 96.6961 24.4506 96.6236 22.617H100.125C100.85 24.4506 103.38 24.755 104.881 23.7766C105.439 23.407 105.591 22.6532 105.222 22.1024C105.089 21.9045 104.903 21.7485 104.685 21.653C102.662 20.776 100.219 21.0225 98.4215 19.6019C96.6236 18.1814 96.5294 15.3258 98.0083 13.6878V13.6588Z" fill="white"/>
</g>
<defs>
<clipPath id="clip0_2_1130">
<rect width="124" height="37.92" fill="white" transform="translate(0 0.699951)"/>
</clipPath>
</defs>
</svg>
