<svg width="13" height="11" viewBox="0 0 13 11" fill="none" xmlns="http://www.w3.org/2000/svg">
<path d="M12.7283 6.26298L8.22827 10.763C8.08727 10.904 7.89627 10.983 7.69627 10.983C7.49727 10.983 7.30627 10.904 7.16527 10.763C7.02427 10.622 6.94527 10.431 6.94527 10.232C6.94527 10.033 7.02427 9.84198 7.16527 9.70098L10.3853 6.48298H1.19727C0.998266 6.48298 0.807266 6.40398 0.667266 6.26298C0.526266 6.12198 0.447266 5.93098 0.447266 5.73298C0.447266 5.53398 0.526266 5.34298 0.667266 5.20198C0.807266 5.06198 0.998266 4.98298 1.19727 4.98298H10.3853L7.16627 1.76298C7.02527 1.62198 6.94627 1.43098 6.94627 1.23098C6.94627 1.03198 7.02527 0.84098 7.16627 0.69998C7.30727 0.55898 7.49827 0.47998 7.69827 0.47998C7.89727 0.47998 8.08827 0.55898 8.22927 0.69998L12.7293 5.19998C12.7993 5.26998 12.8543 5.35298 12.8923 5.44398C12.9303 5.53498 12.9493 5.63298 12.9493 5.73198C12.9493 5.83098 12.9293 5.92798 12.8913 6.01998C12.8533 6.11098 12.7983 6.19398 12.7283 6.26298Z" fill="#DEDEE4"/>
</svg>
