<svg width="18" height="18" viewBox="0 0 18 18" fill="none" xmlns="http://www.w3.org/2000/svg">
<path d="M9 1.68738C7.55373 1.68738 6.13993 2.11625 4.9374 2.91976C3.73486 3.72326 2.7976 4.86532 2.24413 6.20151C1.69067 7.53769 1.54586 9.00799 1.82801 10.4265C2.11017 11.845 2.80661 13.1479 3.82928 14.1706C4.85196 15.1933 6.15492 15.8897 7.57341 16.1719C8.99189 16.454 10.4622 16.3092 11.7984 15.7557C13.1346 15.2023 14.2766 14.265 15.0801 13.0625C15.8836 11.86 16.3125 10.4462 16.3125 8.99988C16.3105 7.06111 15.5394 5.20234 14.1685 3.83142C12.7975 2.4605 10.9388 1.68943 9 1.68738ZM15.1615 8.43738H12.3609C12.2618 6.43628 11.6388 4.53714 10.5947 3.02332C11.8176 3.35163 12.9107 4.04639 13.727 5.01425C14.5434 5.9821 15.044 7.17665 15.1615 8.43738ZM9 15.1796C7.68305 13.7544 6.8843 11.7343 6.76618 9.56238H11.2338C11.1157 11.7329 10.317 13.7544 9 15.1796ZM6.76618 8.43738C6.8843 6.26683 7.68024 4.24535 9 2.82011C10.317 4.24535 11.1157 6.26542 11.2338 8.43738H6.76618ZM7.40532 3.02332C6.36118 4.53714 5.73821 6.43628 5.63907 8.43738H2.83852C2.956 7.17665 3.45657 5.9821 4.27296 5.01425C5.08935 4.04639 6.18243 3.35163 7.40532 3.02332ZM2.83852 9.56238H5.63907C5.73821 11.5635 6.36118 13.4626 7.40532 14.9764C6.18243 14.6481 5.08935 13.9534 4.27296 12.9855C3.45657 12.0177 2.956 10.8231 2.83852 9.56238ZM10.5947 14.9764C11.6388 13.4605 12.2618 11.5614 12.3609 9.56238H15.1615C15.044 10.8231 14.5434 12.0177 13.727 12.9855C12.9107 13.9534 11.8176 14.6481 10.5947 14.9764Z" fill="white"/>
</svg>
