<svg width="15" height="32" viewBox="0 0 15 32" fill="none" xmlns="http://www.w3.org/2000/svg">
<g clip-path="url(#clip0_22_5)">
<path d="M0.113165 0.862793C1.6805 0.947658 3.18559 0.879766 4.68502 0.891081C6.18446 0.902397 7.68389 0.874108 9.18333 0.862793C9.22859 0.862793 9.2682 0.868451 9.39834 0.885424C9.25123 1.00423 9.16635 1.07778 9.07016 1.14002C8.25538 1.67184 7.54809 2.31682 7.05017 3.15981C6.9653 3.30691 6.91437 3.49361 6.91437 3.66334C6.91437 10.9052 6.92003 18.147 6.92569 25.3888V25.8075C7.37269 25.7057 7.78008 25.6264 8.17616 25.5246C9.63599 25.1399 10.9657 24.4836 12.12 23.5105C12.997 22.775 13.5685 21.8075 14.106 20.8231C14.338 20.3931 14.5473 19.9518 14.7737 19.5162C14.8133 19.437 14.8642 19.3634 14.9604 19.2106C14.983 19.3691 14.9943 19.437 14.9943 19.5105C14.9943 21.9037 14.9943 24.3026 15 26.6958C15 26.9447 14.8868 27.1201 14.7171 27.2841C13.9702 27.9857 13.0819 28.4213 12.12 28.7269C10.3772 29.2813 8.60619 29.717 6.79555 30.0225C5.06978 30.311 3.34402 30.6505 1.61826 30.9503C1.10336 31.0408 0.577141 31.0748 0 31.1427C0.0452659 31.0352 0.0509242 30.9843 0.0792154 30.956C0.622407 30.3563 1.1656 29.7509 1.72011 29.1625C2.34817 28.5006 2.59713 27.6802 2.61411 26.8089C2.66503 24.5289 2.65937 22.2488 2.67635 19.9631C2.67635 19.5841 2.68766 19.2106 2.69332 18.8316C2.69332 18.4978 2.67635 18.4695 2.32554 18.4638H1.1656C1.22784 18.3563 1.25613 18.2828 1.3014 18.2262C1.60694 17.8471 1.90683 17.4568 2.23501 17.0947C2.48397 16.8231 2.61977 16.5232 2.61977 16.1555C2.62542 14.7298 2.64806 13.3097 2.65372 11.884C2.65372 9.17958 2.65372 6.46955 2.63108 3.76518C2.63108 3.59545 2.55187 3.39178 2.44436 3.25033C1.81064 2.40734 1.17126 1.55869 0.282912 0.958973C0.231988 0.925027 0.169747 0.896739 0.113165 0.862793Z" fill="white"/>
</g>
<defs>
<clipPath id="clip0_22_5">
<rect width="15" height="30.28" fill="white" transform="translate(0 0.859863)"/>
</clipPath>
</defs>
</svg>
