<svg width="600" height="178" viewBox="0 0 600 178" fill="none" xmlns="http://www.w3.org/2000/svg">
<g clip-path="url(#clip0_2_1004)">
<path d="M233.187 20.5479H200.656C200.781 20.8209 200.801 20.9397 200.871 21.0071C201.106 21.2255 201.359 21.4214 201.597 21.6365C206.555 26.1515 209.179 31.5109 207.667 38.3732C207.275 40.149 206.941 41.9376 206.491 43.7005C202.833 58.0609 199.166 72.4149 195.486 86.7689C193.305 95.2656 191.109 103.759 188.896 112.25C188.752 112.799 188.395 113.293 187.968 114.157C187.65 113.284 187.445 112.853 187.339 112.397C186.423 108.499 185.518 104.597 184.625 100.693C182.65 92.048 180.726 83.3907 178.7 74.7558C177.836 71.0726 176.69 67.4568 175.813 63.7768C174.034 56.298 172.557 48.7389 170.55 41.3211C169.214 36.3855 169.304 31.6458 170.649 26.8194C171.259 24.6294 171.847 22.4361 172.473 20.1433C171.574 20.2429 170.797 20.4034 170.016 20.4034C165.842 20.4195 161.667 20.397 157.492 20.3842C152.73 20.3681 147.97 20.3264 143.208 20.3489C141.817 20.3553 140.469 20.6186 139.637 21.7971C142.004 24.7803 144.326 27.635 146.548 30.5668C147.142 31.3504 147.598 32.3201 147.842 33.2738C149.078 38.0938 150.212 42.9363 151.407 47.7659C153.992 58.199 156.567 68.6353 159.191 79.0588C161.84 89.5883 164.605 100.089 167.203 110.631C169.644 120.547 171.956 130.492 174.255 140.44C174.442 141.243 174.333 142.277 173.973 143.016C172.348 146.355 169.647 148.825 166.937 151.265C166.622 151.548 166.349 151.879 165.935 152.315H206.43C205.676 150.98 205.014 150.016 204.552 148.963C203.251 146.009 201.482 143.192 202.345 139.67C204.487 130.948 206.462 122.182 208.649 113.47C211.784 100.975 215.078 88.519 218.248 76.0307C221.659 62.608 225.185 49.2109 228.274 35.7143C229.375 30.8944 232.474 27.9529 235.769 24.9119C236.219 24.4977 236.627 24.3885 237.044 24.6165C235.895 23.2999 234.616 21.7264 233.184 20.5479H233.187ZM365.217 141.738C365.207 129.426 365.226 117.118 365.226 104.806C365.226 104.392 365.146 103.981 365.104 103.567C364.616 103.759 364.446 103.955 364.362 104.183C363.052 107.738 361.906 111.363 360.419 114.841C356.864 123.158 351.257 129.702 342.898 133.434C339.609 134.901 335.996 135.659 332.512 136.667C330.245 137.322 329.866 136.988 329.866 134.664C329.824 101.746 329.785 68.8248 329.712 35.907C329.708 34.2404 330.119 32.7986 331.282 31.6811C334.4 28.6851 337.586 25.7597 340.752 22.8118C341.154 22.4393 341.6 22.1182 342.342 21.5113H342.355H299.322C299.849 21.9994 300.607 22.7219 301.493 23.6339C302.418 24.5844 302.38 24.6101 303.667 25.9909C305.463 27.9176 306.32 28.7525 307.627 30.3966C307.755 30.5572 307.874 30.7177 308.016 30.9168C308.818 32.0343 309.541 33.5115 309.563 34.8409C309.721 44.3107 309.714 53.7836 309.708 63.2566C309.702 71.6699 308.395 79.8809 305.581 87.8286C304.987 89.4984 304.374 91.1618 303.703 93.0114L310.273 91.9742V100.567C310.276 111.967 310.305 123.37 310.276 134.77C310.257 142.223 307.171 148.083 300.983 152.283C300.623 152.527 300.334 152.871 299.881 153.292H368.007L368.364 152.935C364.619 149.872 365.217 145.72 365.217 141.738ZM537.491 84.0458C538.592 84.0458 539.276 84.0426 539.96 84.0458C550.879 84.1132 561.794 84.1614 572.71 84.2577C578.599 84.3091 583.211 81.7658 586.971 77.4243C588.144 76.0724 589.264 74.6756 590.488 73.2016C588.779 84.855 587.479 96.2611 592.421 107.645C587.199 107.362 582.225 107.096 576.673 106.797C577.896 108.309 578.815 109.639 579.929 110.776C581.046 111.916 582.296 112.959 583.606 113.868C584.858 114.735 585.241 115.817 585.244 117.272C585.273 129.153 585.324 141.035 585.43 152.916C585.449 155.09 585.491 157.325 585.998 159.419C586.779 162.627 589.136 164.958 591.21 167.411C594.065 170.786 596.904 174.174 600.003 177.857C598.092 177.719 596.368 177.722 594.688 177.449C581.12 175.24 567.527 173.156 554.007 170.671C543.255 168.696 533.011 165.118 523.775 159.085C515.255 153.52 508.736 146.144 504.108 137.078C503.331 135.556 502.589 133.964 501.52 132.653C499.779 130.524 499.372 128.209 499.378 125.531C499.429 101.714 499.323 77.8964 499.378 54.0791C499.404 42.4867 503.99 32.5417 511.164 23.7077C519.542 13.3967 530.381 6.78484 543.136 3.37778C552.443 0.892325 561.965 0.510194 571.496 1.70154C576.846 2.37268 582.116 3.66999 587.46 4.42783C591.043 4.9352 594.695 4.98658 598.314 5.24668C598.555 5.26274 598.796 5.31733 599.499 5.42651C598.606 6.06874 597.974 6.40913 597.479 6.89402C594.438 9.89326 591.41 12.9053 588.429 15.9624C588.067 16.3349 587.851 17.0189 587.855 17.5583C587.88 27.7249 587.842 37.8947 588.07 48.0613C588.137 51.0638 588.982 54.047 589.255 57.271C588.128 55.9094 586.975 54.5736 585.883 53.1864C579.328 44.8694 575.073 35.3932 571.974 25.3551C571.621 24.2087 571.014 23.544 569.983 23.0719C565.362 20.959 560.468 20.6764 555.532 21.0682C550.709 21.4503 546.059 22.6063 541.739 24.944C536.485 27.7859 533.001 32.2623 530.14 37.2975C525.236 45.9355 522.432 55.1869 521.7 65.148C520.791 77.5046 520.869 89.8516 521.504 102.199C521.89 109.706 523.081 117.111 526.344 124.002C532.523 137.053 542.301 145.511 556.894 147.756C557.475 147.845 558.069 147.858 558.644 147.977C559.903 148.24 560.189 147.688 560.179 146.51C560.124 140.835 560.147 135.165 560.144 129.49C560.137 123.871 560.083 118.251 560.153 112.632C560.179 110.715 559.749 109.032 558.544 107.564C555.224 103.512 552.012 99.3599 548.512 95.4647C545.301 91.8875 541.768 88.5992 538.387 85.1761C538.143 84.9289 537.95 84.6366 537.471 84.0394L537.491 84.0458Z" fill="white"/>
<path d="M462.383 21.28H502.198C500.187 22.2337 500.797 24.0352 500.563 25.5894C500.406 26.6234 499.792 27.5867 499.372 28.5757C499.333 28.6689 499.237 28.7427 499.156 28.8134C497.059 30.6084 496.414 32.8241 496.436 35.6146C496.517 45.5692 496.26 55.527 496.257 65.4816C496.253 89.5492 496.318 113.62 496.363 137.688C496.363 139.187 496.469 140.684 496.436 142.183C496.382 144.646 497.188 146.795 498.639 148.744C500.033 150.619 501.411 152.51 503.087 154.794C502.214 154.794 501.828 154.851 501.465 154.784C494.404 153.471 487.525 151.48 480.813 148.949C479.908 148.609 478.951 147.822 478.482 146.981C472.833 136.84 467.101 126.738 461.725 116.449C452.759 99.2823 444.04 81.9902 435.208 64.7527C435.048 64.4412 434.813 64.1682 434.512 63.7347C434.351 64.0719 434.194 64.2421 434.197 64.4123C434.28 82.4494 434.37 100.486 434.476 118.524C434.512 124.625 434.784 130.732 434.608 136.827C434.406 143.805 438.047 148.368 443.327 152.106C443.828 152.459 444.342 152.793 445.029 153.255H404.472C404.421 153.146 404.373 153.037 404.321 152.928C404.662 152.681 404.983 152.395 405.346 152.193C408.23 150.581 410.757 148.558 412.713 145.87C414.058 144.02 415.028 142.032 415.044 139.669C415.083 134.425 415.189 129.181 415.195 123.934C415.23 94.9215 415.218 65.9087 415.311 36.8959C415.32 34.3109 414.479 32.1979 413.072 30.2006C410.869 27.0729 408.342 24.2599 405.034 22.2369C404.777 22.0796 404.559 21.8516 404.177 21.5337C404.559 21.3763 404.771 21.2158 404.983 21.2158C412.263 21.2318 419.543 21.3667 426.817 21.2318C429.389 21.1836 430.889 22.2176 432.081 24.3081C436.352 31.7901 440.69 39.2304 444.99 46.6931C450.629 56.4743 456.214 66.2812 461.901 76.0335C465.62 82.4076 469.477 88.7015 473.276 95.0275C473.523 95.4385 473.767 95.8784 474.114 96.1963C474.888 96.8996 475.502 96.6812 475.739 95.6858C475.861 95.1752 475.813 94.6229 475.816 94.0866C475.839 74.1742 475.871 54.2618 475.842 34.3494C475.842 33.5851 475.479 32.6379 474.959 32.0855C471.397 28.2932 467.659 24.6967 463.038 22.1727C462.772 22.0282 462.537 21.8162 462.29 21.6364C462.319 21.5176 462.351 21.3988 462.38 21.28H462.383ZM0.635852 5.29161C9.52493 5.77008 18.0608 5.37831 26.5805 5.43933C35.0875 5.50034 43.5976 5.33336 52.1045 5.26913C52.3486 5.26913 52.5926 5.31409 53.3152 5.38474C52.4803 6.04624 52.0018 6.48938 51.4622 6.8426C46.8347 9.8643 42.8365 13.5282 39.9912 18.3129C39.4999 19.1349 39.2076 20.2107 39.2076 21.1708C39.2076 62.2769 39.2494 103.383 39.2879 144.486V146.872C41.8378 146.294 44.1243 145.847 46.3722 145.256C54.6672 143.076 62.1946 139.351 68.7715 133.815C73.7395 129.634 77.0055 124.159 80.0499 118.546C81.373 116.102 82.5644 113.588 83.8297 111.112C84.0609 110.659 84.3531 110.239 84.8766 109.378C84.9922 110.28 85.0853 110.672 85.0853 111.067C85.1014 124.66 85.0982 138.256 85.1239 151.849C85.1239 153.255 84.4976 154.264 83.515 155.192C79.2888 159.174 74.218 161.656 68.7683 163.383C58.8709 166.518 48.8129 169.006 38.5589 170.727C28.7482 172.375 18.9824 174.289 9.1781 175.994C6.24933 176.504 3.26918 176.71 0 177.089C0.260121 176.466 0.295446 176.202 0.443169 176.042C3.54214 172.641 6.61222 169.215 9.77221 165.875C13.3272 162.115 14.737 157.462 14.843 152.53C15.1224 139.582 15.1063 126.632 15.2091 113.681C15.2251 111.539 15.2637 109.401 15.2958 107.259C15.3247 105.351 15.1898 105.191 13.2148 105.165C11.137 105.136 9.05928 105.159 6.64112 105.159C6.98474 104.549 7.14852 104.131 7.41506 103.8C9.16526 101.636 10.8641 99.4268 12.7235 97.362C14.1236 95.8078 14.8976 94.1155 14.9104 92.0218C14.9554 83.9426 15.087 75.8601 15.0935 67.7808C15.1031 52.4218 15.0645 37.0596 14.9682 21.7006C14.9618 20.7212 14.5218 19.5781 13.9181 18.7913C10.2668 14.042 6.65718 9.23171 1.59926 5.80861C1.30061 5.60631 0.956989 5.46502 0.635852 5.29482V5.29161Z" fill="white"/>
<path d="M76.6394 20.2974H81.2188C101.553 20.3134 121.891 20.3327 142.225 20.3455C144.547 20.3455 145.69 21.4727 145.694 23.7462C145.7 32.2011 145.703 40.6561 145.751 49.1143C145.761 50.5915 145.976 52.0654 146.124 53.9214C145.376 53.3787 144.807 53.0994 144.412 52.6627C140.79 48.668 137.203 44.638 133.583 40.6433C133.166 40.1809 132.655 39.6318 132.1 39.5001C129.666 38.9221 127.209 38.1546 124.736 38.0583C119.286 37.8432 113.821 38.023 108.365 37.962C107.144 37.9491 106.804 38.373 106.807 39.5354C106.852 51.2016 106.852 62.8677 106.878 74.5371C106.881 76.2518 107.16 76.3739 109.302 75.8729C116.22 74.2545 122.357 71.1621 127.533 66.2555C129.746 64.1586 131.92 62.0168 134.113 59.9006C134.467 59.5602 134.842 59.2423 135.208 58.9116C135.343 58.9918 135.478 59.0721 135.61 59.1524C135.163 60.6649 134.73 62.1805 134.264 63.6833C132.235 70.2181 130.369 76.8138 126.958 82.8251C122.462 90.747 115.972 96.5496 107.934 100.686C107.115 101.106 106.711 101.498 106.717 102.468C106.762 112.101 106.762 121.735 106.781 131.368C106.781 131.786 106.852 132.2 106.874 132.425C110.924 132.425 114.868 132.566 118.802 132.399C129.569 131.937 138.625 127.123 147.062 120.903C150.588 118.305 153.963 115.508 157.409 112.804C157.653 112.612 157.919 112.451 158.468 112.477C158.016 113.28 157.547 114.073 157.113 114.885C152.852 122.855 148.635 130.838 145.263 139.255C144.245 141.795 145.209 143.988 145.482 146.306C145.732 148.419 146.368 150.484 146.818 152.575C146.869 152.819 146.824 153.085 146.824 153.615C145.928 153.336 145.173 152.973 144.383 152.877C141.946 152.578 139.499 152.189 137.055 152.176C121.483 152.103 105.911 152.122 90.3359 152.109C87.8728 152.109 87.8631 152.099 87.8664 149.701C87.8953 128.346 87.9145 106.992 87.9916 85.6413C87.9916 84.8096 88.4187 83.9072 88.8587 83.1655C89.4464 82.1796 90.2428 81.3223 91.158 80.1438H79.5682C79.9792 79.5818 80.249 79.1162 80.6054 78.7373C85.0982 73.9623 87.4681 68.3331 87.4232 61.747C87.3622 52.7076 87.3012 43.6682 87.1566 34.632C87.1406 33.6847 86.7552 32.609 86.2093 31.8254C83.4507 27.8821 80.6986 23.9164 76.8642 20.8818C76.7935 20.8272 76.7839 20.6923 76.6298 20.291L76.6394 20.2974ZM405.847 153.291H364.841C364.703 153.175 364.565 153.056 364.427 152.941C364.767 152.799 365.178 152.735 365.435 152.504C367.188 150.937 368.974 149.402 370.621 147.729C373.181 145.125 374.314 141.923 374.321 138.272C374.353 121.15 374.404 104.028 374.472 86.9032C374.478 85.2367 374.648 83.5701 374.758 81.6498H369.379C370.58 79.3506 371.71 77.3693 372.667 75.311C374.212 71.9842 374.472 68.4038 374.465 64.8008C374.449 54.6889 374.433 44.577 374.33 34.465C374.321 33.4824 373.971 32.2525 373.322 31.5653C370.291 28.3413 367.102 25.2683 363.971 22.1438C363.752 21.9286 363.524 21.7231 363.075 21.3025H406.46L406.884 21.8259C406.547 21.9575 406.142 22.0121 405.879 22.2337C402.536 25.0499 399.125 27.8019 395.94 30.7882C395.089 31.5878 394.53 33.1388 394.53 34.3462C394.517 69.1809 394.591 104.012 394.652 138.847C394.658 141.509 395.452 143.847 397.272 145.876C399.639 148.516 401.961 151.165 405.298 152.645C405.465 152.719 405.564 152.947 405.847 153.284V153.291ZM227.667 20.5093H232.246C252.581 20.5254 272.919 20.5446 293.253 20.5575C295.575 20.5575 296.718 21.6846 296.721 23.9581C296.728 32.4131 296.731 40.8681 296.779 49.3263C296.789 50.8034 297.004 52.2773 297.152 54.1334C296.403 53.5907 295.835 53.3113 295.44 52.8746C291.817 48.8799 288.23 44.8499 284.611 40.8552C284.194 40.3928 283.683 39.8437 283.127 39.712C280.693 39.134 278.237 38.3666 275.764 38.2702C270.314 38.0551 264.848 38.2349 259.392 38.1739C258.172 38.1611 257.831 38.5849 257.835 39.7474C257.88 51.4135 257.88 63.0797 257.905 74.749C257.909 76.4638 258.188 76.5858 260.33 76.0849C267.247 74.4664 273.384 71.3741 278.561 66.4674C280.774 64.3705 282.948 62.2287 285.141 60.1125C285.494 59.7722 285.87 59.4543 286.236 59.1235C286.371 59.2038 286.506 59.2841 286.637 59.3643C286.191 60.8768 285.758 62.3925 285.292 63.8953C283.262 70.43 281.397 77.0257 277.986 83.037C273.49 90.9589 267 96.7615 258.962 100.897C258.143 101.318 257.738 101.71 257.745 102.68C257.79 112.313 257.79 121.947 257.809 131.58C257.809 131.998 257.88 132.412 257.902 132.637C261.952 132.637 265.895 132.778 269.829 132.611C280.597 132.148 289.653 127.335 298.089 121.115C301.615 118.517 304.99 115.72 308.436 113.016C308.68 112.824 308.947 112.663 309.496 112.689C309.043 113.492 308.574 114.285 308.141 115.097C303.879 123.067 299.663 131.05 296.291 139.467C295.273 142.007 296.236 144.2 296.509 146.518C296.76 148.631 297.396 150.696 297.845 152.787C297.897 153.031 297.852 153.297 297.852 153.827C296.956 153.548 296.201 153.185 295.411 153.088C292.974 152.79 290.526 152.401 288.083 152.388C272.511 152.315 256.939 152.334 241.364 152.321C238.9 152.321 238.891 152.311 238.894 149.913C238.923 128.558 238.942 107.204 239.019 85.8532C239.019 85.0215 239.446 84.1192 239.886 83.3774C240.474 82.3916 241.27 81.5342 242.186 80.3557H230.596C231.007 79.7937 231.277 79.3281 231.633 78.9492C236.126 74.1742 238.496 68.545 238.451 61.959C238.39 52.9195 238.329 43.8801 238.184 34.8439C238.168 33.8966 237.783 32.8209 237.237 32.0374C234.478 28.0941 231.726 24.1283 227.892 21.0937C227.821 21.0392 227.812 20.9043 227.657 20.5029L227.667 20.5093Z" fill="white"/>
</g>
<defs>
<clipPath id="clip0_2_1004">
<rect width="600" height="176.97" fill="white" transform="translate(0 0.970001)"/>
</clipPath>
</defs>
</svg>
